<?xml version="1.0" encoding="UTF-8" standalone="no"?>
<svg
   xmlns:dc="http://purl.org/dc/elements/1.1/"
   xmlns:cc="http://creativecommons.org/ns#"
   xmlns:rdf="http://www.w3.org/1999/02/22-rdf-syntax-ns#"
   xmlns:svg="http://www.w3.org/2000/svg"
   xmlns="http://www.w3.org/2000/svg"
   viewBox="0 0 738.25336 619.38666"
   height="619.38666"
   width="738.25336"
   xml:space="preserve"
   id="svg2"
   version="1.1"><metadata
     id="metadata8"><rdf:RDF><cc:Work
         rdf:about=""><dc:format>image/svg+xml</dc:format><dc:type
           rdf:resource="http://purl.org/dc/dcmitype/StillImage" /></cc:Work></rdf:RDF></metadata><defs
     id="defs6" /><g
     transform="matrix(1.3333333,0,0,-1.3333333,0,619.38667)"
     id="g10"><g
       transform="scale(0.1)"
       id="g12"><path
         id="path14"
         style="fill:#00a0c6;fill-opacity:1;fill-rule:nonzero;stroke:none"
         d="m 1917.98,1270.49 c -202.8,-79.1 -358.15,-212.38 -409.06,-465.158 -26.76,-93.711 0,-139.277 81.99,-146.152 237.33,-12.91 406.48,42.988 556.64,117.754 -76.8,164.218 -152.75,329.296 -229.57,493.556" /><path
         id="path16"
         style="fill:none;stroke:#000000;stroke-width:23.88400078;stroke-linecap:butt;stroke-linejoin:miter;stroke-miterlimit:2.61310005;stroke-dasharray:none;stroke-opacity:1"
         d="m 1917.98,1270.49 c -202.8,-79.1 -358.15,-212.38 -409.06,-465.158 -26.76,-93.711 0,-139.277 81.99,-146.152 237.33,-12.91 406.48,42.988 556.64,117.754 -76.8,164.218 -152.75,329.296 -229.57,493.556 z" /><path
         id="path18"
         style="fill:#00a0c6;fill-opacity:1;fill-rule:nonzero;stroke:none"
         d="m 2929.44,581.797 c 8.65,-216.68 85.45,-406.68 308.97,-535.6251 80.28,-55.91799 132.91,-45.605494 165.73,30.0586 88.02,219.2575 89.73,397.2465 67.29,562.3045 -180.38,-18.906 -361.62,-37.832 -541.99,-56.738" /><path
         id="path20"
         style="fill:none;stroke:#000000;stroke-width:23.88400078;stroke-linecap:butt;stroke-linejoin:miter;stroke-miterlimit:2.61310005;stroke-dasharray:none;stroke-opacity:1"
         d="m 2929.44,581.797 c 8.65,-216.68 85.45,-406.68 308.97,-535.6251 80.28,-55.91799 132.91,-45.605494 165.73,30.0586 88.02,219.2575 89.73,397.2465 67.29,562.3045 -180.38,-18.906 -361.62,-37.832 -541.99,-56.738 z" /><path
         id="path22"
         style="fill:#ff0000;fill-opacity:1;fill-rule:evenodd;stroke:none"
         d="M 1813.57,1582.58 C 1611.61,473.477 3222.9,-106.895 3758.81,859.473 3651.8,1003.07 3543.91,1147.5 3436.9,1291.09 l -1225.49,472.87 c -132.91,-61.03 -264.93,-121.19 -397.84,-181.38" /><path
         id="path24"
         style="fill:none;stroke:#000000;stroke-width:23.88400078;stroke-linecap:butt;stroke-linejoin:miter;stroke-miterlimit:2.61310005;stroke-dasharray:none;stroke-opacity:1"
         d="M 1813.57,1582.58 C 1611.61,473.477 3222.9,-106.895 3758.81,859.473 3651.8,1003.07 3543.91,1147.5 3436.9,1291.09 l -1225.49,472.87 c -132.91,-61.03 -264.93,-121.19 -397.84,-181.38 z" /><path
         id="path26"
         style="fill:#ffcc00;fill-opacity:1;fill-rule:evenodd;stroke:none"
         d="m 4208.44,1477.66 c 115.66,-97.13 230.44,-195.16 346.11,-292.31 69.89,93.73 144.99,143.58 227.81,130.7 96.64,-31.83 45.77,-113.51 -9.48,-196.89 40.55,-11.21 81.96,-10.31 122.54,2.56 117.4,36.99 169.16,7.73 155.35,-86.82 -25.91,-68.787 -103.56,-112.654 -204.52,-145.31 108.71,-61.035 198.48,-123.789 176.05,-191.738 -17.28,-66.192 -169.17,-91.133 -279.63,-30.079 -69.04,38.692 -139.8,12.032 -202.83,-61.054 C 4469.95,504.414 4335.3,489.785 4331,585.234 c -5.18,62.754 1.75,131.543 20.72,206.348 -79.42,10.313 -230.45,34.395 -422.87,63.613 l 279.59,622.465" /><path
         id="path28"
         style="fill:none;stroke:#000000;stroke-width:23.88400078;stroke-linecap:butt;stroke-linejoin:miter;stroke-miterlimit:2.61310005;stroke-dasharray:none;stroke-opacity:1"
         d="m 4208.44,1477.66 c 115.66,-97.13 230.44,-195.16 346.11,-292.31 69.89,93.73 144.99,143.58 227.81,130.7 96.64,-31.83 45.77,-113.51 -9.48,-196.89 40.55,-11.21 81.96,-10.31 122.54,2.56 117.4,36.99 169.16,7.73 155.35,-86.82 -25.91,-68.787 -103.56,-112.654 -204.52,-145.31 108.71,-61.035 198.48,-123.789 176.05,-191.738 -17.28,-66.192 -169.17,-91.133 -279.63,-30.079 -69.04,38.692 -139.8,12.032 -202.83,-61.054 C 4469.95,504.414 4335.3,489.785 4331,585.234 c -5.18,62.754 1.75,131.543 20.72,206.348 -79.42,10.313 -230.45,34.395 -422.87,63.613 l 279.59,622.465 z m 239.09,-686.078 h -95.81" /><path
         id="path30"
         style="fill:#ff0000;fill-opacity:1;fill-rule:evenodd;stroke:none"
         d="m 1769.55,2502.54 c 107.03,81.67 246.82,84.25 431.5,-27.5 124.28,-102.34 247.68,-204.65 371.97,-306.95 31.94,-105.77 63.87,-212.37 95.8,-318.11 -102.69,-80.82 -205.39,-162.5 -308.11,-243.32 -257.16,-129.82 -509.17,-162.5 -746.51,16.33 51.78,293.18 103.57,586.35 155.35,879.55" /><path
         id="path32"
         style="fill:none;stroke:#000000;stroke-width:23.88400078;stroke-linecap:butt;stroke-linejoin:miter;stroke-miterlimit:2.61310005;stroke-dasharray:none;stroke-opacity:1"
         d="m 1769.55,2502.54 c 107.03,81.67 246.82,84.25 431.5,-27.5 124.28,-102.34 247.68,-204.65 371.97,-306.95 31.94,-105.77 63.87,-212.37 95.8,-318.11 -102.69,-80.82 -205.39,-162.5 -308.11,-243.32 -257.16,-129.82 -509.17,-162.5 -746.51,16.33 51.78,293.18 103.57,586.35 155.35,879.55 z" /><path
         id="path34"
         style="fill:none;stroke:#000000;stroke-width:23.88400078;stroke-linecap:round;stroke-linejoin:miter;stroke-miterlimit:2.61310005;stroke-dasharray:none;stroke-opacity:1"
         d="m 1952.5,2561 c 162.26,-28.38 171.74,-134.99 202.82,-203.77 m -304.64,-845.16 c 81.99,6.86 157.07,51.6 205.39,141" /><path
         id="path36"
         style="fill:#ffcc00;fill-opacity:1;fill-rule:evenodd;stroke:none"
         d="m 1392.4,1704.67 c -17.26,-29.26 -37.97,-54.18 -60.41,-76.53 l 60.41,76.53 z m -61.27,-77.38 c -62.14,-59.34 -145.85,-95.45 -249.41,-106.61 -100.99,2.58 -182.97,-47.32 -258.06,-121.23 -95.793,-98.02 -204.523,-142.73 -340.015,-73.1 -132.918,79.96 -74.231,236.46 116.5,445.37 33.664,45.57 -115.641,56.76 -290.832,63.63 -152.754,17.19 -287.3989,48.13 -296.8911,169.36 -9.48831,158.2 116.5041,245.06 378.8671,261.38 107.883,6 169.16,19.77 199.356,38.69 55.246,16.35 -62.993,127.26 -160.516,183.99 -124.274,69.65 -208.852,144.45 -203.66,226.99 31.051,171.1 237.316,247.6 534.183,73.07 82.864,-54.16 165.727,-81.68 247.708,-97.15 -1.73,-22.35 -2.59,-44.72 -4.31,-67.92 0,242.46 77.67,380.87 233,416.14 195.92,23.2 275.31,-90.27 238.21,-338.77 2.59,-67.91 40.56,-90.27 82.84,-105.74 198.5,-79.1 397.85,-158.2 597.22,-237.3 107.88,-270.82 67.31,-505.55 -98.39,-710.18 -245.09,-6.86 -481.56,-13.75 -725.8,-20.62" /><path
         id="path38"
         style="fill:none;stroke:#000000;stroke-width:23.88400078;stroke-linecap:butt;stroke-linejoin:miter;stroke-miterlimit:2.61310005;stroke-dasharray:none;stroke-opacity:1"
         d="m 1392.4,1704.67 c -17.26,-29.26 -37.97,-54.18 -60.41,-76.53 m -0.86,-0.85 c -62.14,-59.34 -145.85,-95.45 -249.41,-106.61 -100.99,2.58 -182.97,-47.32 -258.06,-121.23 -95.793,-98.02 -204.523,-142.73 -340.015,-73.1 -132.918,79.96 -74.231,236.46 116.5,445.37 33.664,45.57 -115.641,56.76 -290.832,63.63 -152.754,17.19 -287.3989,48.13 -296.8911,169.36 -9.48831,158.2 116.5041,245.06 378.8671,261.38 107.883,6 169.16,19.77 199.356,38.69 55.246,16.35 -62.993,127.26 -160.516,183.99 -124.274,69.65 -208.852,144.45 -203.66,226.99 31.051,171.1 237.316,247.6 534.183,73.07 82.864,-54.16 165.711,-81.68 247.708,-97.15 -1.73,-22.35 -2.59,-44.72 -4.31,-67.92 0,242.46 77.67,380.87 233,416.14 195.92,23.2 275.31,-90.27 238.21,-338.77 2.59,-67.91 40.54,-90.27 82.84,-105.74 198.5,-79.1 397.85,-158.2 597.22,-237.3 107.88,-270.82 67.31,-505.55 -98.39,-710.18 -245.09,-6.86 -481.56,-13.75 -725.8,-20.62 z" /><path
         id="path40"
         style="fill:#ff0000;fill-opacity:1;fill-rule:evenodd;stroke:none"
         d="m 3361.82,1199.12 c 75.08,-308.671 253.75,-416.991 503.17,-388.632 294.27,102.325 390.95,331.012 352.95,646.582 -17.26,102.31 -65.58,166.78 -126.87,213.2 -201.92,-8.61 -404.74,-17.2 -606.71,-25.78 -40.56,-148.77 -81.11,-296.64 -122.54,-445.37" /><path
         id="path42"
         style="fill:none;stroke:#000000;stroke-width:23.88400078;stroke-linecap:butt;stroke-linejoin:miter;stroke-miterlimit:2.61310005;stroke-dasharray:none;stroke-opacity:1"
         d="m 3361.82,1199.12 c 75.08,-308.671 253.75,-416.991 503.17,-388.632 294.27,102.325 390.95,331.012 352.95,646.582 -17.26,102.31 -65.58,166.78 -126.87,213.2 -201.92,-8.61 -404.74,-17.2 -606.71,-25.78 -40.56,-148.77 -81.11,-296.64 -122.54,-445.37 z" /><path
         id="path44"
         style="fill:#ffcc00;fill-opacity:1;fill-rule:evenodd;stroke:none"
         d="m 2285.64,2337.46 c -138.95,157.34 -134.63,288.02 12.94,390.33 48.33,39.55 95.8,74.79 132.92,128.97 33.64,71.36 80.25,105.74 127.72,134.98 113.05,146.16 226.11,292.32 339.17,438.49 47.46,158.2 24.16,214.95 273.59,246.76 69.9,71.36 139.8,173.67 209.7,244.18 248.53,239.87 396.14,478.03 487.6,716.19 66.48,-72.22 97.53,-165.09 93.21,-280.29 87.16,88.56 176.94,164.2 280.47,152.18 0.89,-79.97 0.89,-159.92 1.75,-240.75 80.28,41.28 160.52,81.69 240.77,122.96 -12.93,-80.82 -25.9,-160.78 -38.83,-241.6 73.36,54.16 146.73,99.73 220.93,82.54 -19.83,-84.26 -38.81,-167.66 -58.69,-251.05 87.17,36.96 174.34,74.79 261.52,111.78 -26.77,-79.97 -52.66,-160.79 -79.43,-240.75 97.54,24.08 194.18,48.15 291.71,72.21 -39.67,-84.24 -79.38,-167.64 -119.08,-251.9 83.7,17.19 167.43,34.39 251.14,52.45 -29.34,-73.96 -58.7,-147.89 -88.9,-221.83 80.24,17.18 161.38,35.24 241.65,52.45 -36.25,-70.51 -73.33,-141.01 -109.58,-211.5 90.59,-6.03 181.21,-12.05 271.83,-18.06 -193.31,-145.31 -380.59,-307.81 -559.24,-495.24 -266.7,-282.87 -532.49,-565.73 -799.17,-848.6 102.71,-116.05 61.3,-233.84 -78.52,-352.5 -104.43,-77.38 -210.57,-90.27 -315.87,-39.55 -19.86,-12.87 -39.69,-24.92 -58.7,-37.83 -40.57,-328.44 -268.41,-485.76 -769.79,-390.35 -280.52,82.54 -485.91,223.55 -582.56,449.67 -56.09,110.08 25.89,159.06 127.72,198.61 96.67,-10.33 120.83,43.85 73.36,160.8 -119.96,50.7 -168.29,122.95 -145.85,217.5 -45.74,49.88 -90.61,99.73 -135.49,148.75" /><path
         id="path46"
         style="fill:none;stroke:#000000;stroke-width:23.88400078;stroke-linecap:butt;stroke-linejoin:miter;stroke-miterlimit:2.61310005;stroke-dasharray:none;stroke-opacity:1"
         d="m 2285.64,2337.46 c -138.95,157.34 -134.63,288.02 12.94,390.33 48.33,39.55 95.8,74.79 132.92,128.97 33.64,71.36 80.25,105.74 127.72,134.98 113.05,146.16 226.11,292.32 339.17,438.49 47.46,158.2 24.16,214.95 273.59,246.76 69.9,71.36 139.8,173.67 209.7,244.18 248.53,239.87 396.14,478.03 487.6,716.19 66.48,-72.22 97.53,-165.09 93.21,-280.29 87.16,88.56 176.94,164.2 280.47,152.18 0.89,-79.97 0.89,-159.92 1.75,-240.75 80.28,41.28 160.52,81.69 240.77,122.96 -12.93,-80.82 -25.9,-160.78 -38.83,-241.6 73.36,54.16 146.73,99.73 220.93,82.54 -19.83,-84.26 -38.81,-167.66 -58.69,-251.05 87.17,36.96 174.34,74.79 261.52,111.78 -26.77,-79.97 -52.66,-160.79 -79.43,-240.75 97.54,24.08 194.18,48.15 291.71,72.21 -39.67,-84.24 -79.38,-167.64 -119.08,-251.9 83.7,17.19 167.43,34.39 251.14,52.45 -29.34,-73.96 -58.7,-147.89 -88.9,-221.83 80.24,17.18 161.38,35.24 241.65,52.45 -36.25,-70.51 -73.33,-141.01 -109.58,-211.5 90.59,-6.03 181.21,-12.05 271.83,-18.06 -193.31,-145.31 -380.59,-307.81 -559.24,-495.24 -266.7,-282.87 -532.49,-565.73 -799.17,-848.6 102.71,-116.05 61.3,-233.84 -78.52,-352.5 -104.43,-77.38 -210.57,-90.27 -315.87,-39.55 -19.86,-12.87 -39.69,-24.92 -58.7,-37.83 -40.57,-328.44 -268.41,-485.76 -769.79,-390.35 -280.52,82.54 -485.91,223.55 -582.56,449.67 -56.09,110.08 25.89,159.06 127.72,198.61 96.67,-10.33 120.83,43.85 73.36,160.8 -119.96,50.7 -168.29,122.95 -145.85,217.5 -45.74,49.88 -90.61,99.73 -135.49,148.75 z" /><path
         id="path48"
         style="fill:#ffffff;fill-opacity:1;fill-rule:evenodd;stroke:none"
         d="m 3814.05,2971.96 c 249.43,2.6 454.82,-194.3 456.54,-437.62 1.71,-242.46 -200.21,-442.78 -449.63,-444.5 -249.43,-1.73 -453.95,195.16 -455.68,437.64 -2.6,243.31 199.36,442.76 448.77,444.48" /><path
         id="path50"
         style="fill:none;stroke:#000000;stroke-width:23.88400078;stroke-linecap:butt;stroke-linejoin:miter;stroke-miterlimit:2.61310005;stroke-dasharray:none;stroke-opacity:1"
         d="m 3814.05,2971.96 c 249.43,2.6 454.82,-194.3 456.54,-437.62 1.71,-242.46 -200.21,-442.78 -449.63,-444.5 -249.43,-1.73 -453.95,195.16 -455.68,437.64 -2.6,243.31 199.36,442.76 448.77,444.48 z" /><path
         id="path52"
         style="fill:#000000;fill-opacity:1;fill-rule:evenodd;stroke:none"
         d="m 3913.31,2542.09 c -36.24,-0.86 -65.58,-31.82 -64.74,-70.51 0,-38.69 30.21,-70.51 65.6,-69.65 36.24,0 65.58,31.84 64.72,70.52 0,38.68 -29.34,69.64 -65.58,69.64" /><path
         id="path54"
         style="fill:none;stroke:#000000;stroke-width:23.88400078;stroke-linecap:butt;stroke-linejoin:miter;stroke-miterlimit:2.61310005;stroke-dasharray:none;stroke-opacity:1"
         d="m 3913.31,2542.09 c -36.24,-0.86 -65.58,-31.82 -64.74,-70.51 0,-38.69 30.21,-70.51 65.6,-69.65 36.24,0 65.58,31.84 64.72,70.52 0,38.68 -29.34,69.64 -65.58,69.64 z" /><path
         id="path56"
         style="fill:#ffffff;fill-opacity:1;fill-rule:evenodd;stroke:none"
         d="m 3000.21,3487.82 c 235.62,1.72 428.95,-181.4 430.65,-408.37 1.72,-132.41 -63.85,-251.07 -164.82,-327.59 -30.21,-19.78 -70.77,-9.45 -113.08,6.03 -62.12,22.34 -136.34,83.38 -182.09,90.27 -55.23,8.6 -88.89,-7.75 -107.87,-15.48 -37.12,-13.75 -99.26,-73.09 -100.11,-96.29 -112.19,73.07 -186.42,196.88 -187.28,337.03 -1.73,226.12 189,411.83 424.6,414.4" /><path
         id="path58"
         style="fill:none;stroke:#000000;stroke-width:23.88400078;stroke-linecap:butt;stroke-linejoin:miter;stroke-miterlimit:2.61310005;stroke-dasharray:none;stroke-opacity:1"
         d="m 3000.21,3487.82 c 235.62,1.72 428.95,-181.4 430.65,-408.37 1.72,-132.41 -63.85,-251.07 -164.82,-327.59 -30.21,-19.78 -70.77,-9.45 -113.08,6.03 -62.12,22.34 -136.34,83.38 -182.09,90.27 -55.23,8.6 -88.89,-7.75 -107.87,-15.48 -37.12,-13.75 -99.26,-73.09 -100.11,-96.29 -112.19,73.07 -186.42,196.88 -187.28,337.03 -1.73,226.12 189,411.83 424.6,414.4 z" /><path
         id="path60"
         style="fill:#000000;fill-opacity:1;fill-rule:evenodd;stroke:none"
         d="m 2981.24,3139.63 c 33.65,0.86 61.28,-27.5 61.28,-61.92 0,-34.39 -26.76,-62.76 -59.57,-62.76 -33.67,-0.86 -61.26,27.52 -61.26,61.91 -0.86,34.4 26.77,62.77 59.55,62.77" /><path
         id="path62"
         style="fill:none;stroke:#000000;stroke-width:23.88400078;stroke-linecap:butt;stroke-linejoin:miter;stroke-miterlimit:2.61310005;stroke-dasharray:none;stroke-opacity:1"
         d="m 2981.24,3139.63 c 33.65,0.86 61.28,-27.5 61.28,-61.92 0,-34.39 -26.76,-62.76 -59.57,-62.76 -33.67,-0.86 -61.26,27.52 -61.26,61.91 -0.86,34.4 26.77,62.77 59.55,62.77 z m 236.47,-398.95 c -38.84,6.03 -89.77,23.23 -130.33,49.01 -15.52,12.89 -32.78,18.91 -48.33,29.24 -100.1,65.35 -211.43,24.92 -277.02,-80.82 -28.49,-118.65 56.08,-218.38 275.31,-300.06 m 924.29,-496.96 c 99.24,71.39 173.47,99.73 245.09,-2.57 58.69,-110.9 -0.85,-214.07 -97.53,-290.61 -96.64,-100.59 -251.99,-110.02 -327.08,-55.88 -50.03,50.74 -25.87,115.22 5.18,166.78 m 132.92,8.63 c 52.64,86.82 207.13,117.76 223.51,25.78 m -78.52,48.99 c 25.87,-93.69 -40.57,-137.54 -132.91,-168.5" /><path
         id="path64"
         style="fill:#000000;fill-opacity:1;fill-rule:evenodd;stroke:none"
         d="m 2703.35,1951.43 c 80.24,-194.34 8.62,-295.79 -149.3,-343.07 242.49,-281.15 517.81,-430.74 850.94,-344.77 179.49,88.58 225.22,212.35 137.2,321.57 -287.38,122.09 -551.46,244.18 -838.84,366.27" /><path
         id="path66"
         style="fill:none;stroke:#000000;stroke-width:23.88400078;stroke-linecap:butt;stroke-linejoin:miter;stroke-miterlimit:2.61310005;stroke-dasharray:none;stroke-opacity:1"
         d="m 2703.35,1951.43 c 80.24,-194.34 8.62,-295.79 -149.3,-343.07 242.49,-281.15 517.81,-430.74 850.94,-344.77 179.49,88.58 225.22,212.35 137.2,321.57 -287.38,122.09 -551.46,244.18 -838.84,366.27 z" /><path
         id="path68"
         style="fill:#ffffff;fill-opacity:1;fill-rule:evenodd;stroke:none"
         d="m 2428.03,2186.99 c -69.03,-105.76 169.17,-307.81 214.88,-164.22 21.61,-182.28 119.98,-219.25 271.02,-157.34 47.46,-147.03 113.91,-211.5 221.79,-96.27 79.39,-152.21 163.98,-239.9 265.8,-98.89 -0.86,-154.78 56.96,-203.77 172.63,-146.15 -37.99,140.14 -296.89,208.05 -465.19,269.96 -243.39,88.54 -468.62,222.68 -680.93,392.91" /><path
         id="path70"
         style="fill:none;stroke:#000000;stroke-width:23.88400078;stroke-linecap:round;stroke-linejoin:round;stroke-miterlimit:2.61310005;stroke-dasharray:none;stroke-opacity:1"
         d="m 2428.03,2186.99 c -69.03,-105.76 169.17,-307.81 214.88,-164.22 21.61,-182.28 119.98,-219.25 271.02,-157.34 47.46,-147.03 113.91,-211.5 221.79,-96.27 79.39,-152.21 163.98,-239.9 265.8,-98.89 -0.86,-154.78 56.96,-203.77 172.63,-146.15 -37.99,140.14 -296.89,208.05 -465.19,269.96 -243.39,88.54 -468.62,222.68 -680.93,392.91 z" /><path
         id="path72"
         style="fill:#ff0000;fill-opacity:1;fill-rule:evenodd;stroke:none"
         d="m 2701.62,1469.94 c -2.6,92.87 59.54,153.05 181.23,189.14 152.74,27.54 192.44,-73.06 119.1,-94.55 -30.19,-16.35 -50.93,-31.83 -55.24,-47.32 35.38,12.05 31.95,35.27 57.83,40.45 113.93,23.2 183.83,-21.51 217.47,-53.32 65.61,-116.94 -9.48,-183.13 -72.48,-249.34 -17.26,0 -41.42,7.73 -58.69,7.73 40.57,33.54 67.3,66.2 67.3,98.89 -20.69,-46.42 -28.45,-85.12 -90.6,-91.13 -126.88,24.9 -271.86,117.77 -365.92,199.45" /><path
         id="path74"
         style="fill:none;stroke:#000000;stroke-width:23.88400078;stroke-linecap:round;stroke-linejoin:round;stroke-miterlimit:2.61310005;stroke-dasharray:none;stroke-opacity:1"
         d="m 2701.62,1469.94 c -2.6,92.87 59.54,153.05 181.23,189.14 152.74,27.54 192.44,-73.06 119.1,-94.55 -30.19,-16.35 -50.93,-31.83 -55.24,-47.32 35.38,12.05 31.95,35.27 57.83,40.45 113.93,23.2 183.83,-21.51 217.47,-53.32 65.61,-116.94 -9.48,-183.13 -72.48,-249.34 -17.26,0 -41.42,7.73 -58.69,7.73 40.57,33.54 67.3,66.2 67.3,98.89 -20.69,-46.42 -28.45,-85.12 -90.6,-91.13 -126.88,24.9 -271.86,117.77 -365.92,199.45 z M 1117.1,2166.37 c 132.92,-120.37 253.72,-151.33 360.75,-94.59" /></g></g></svg>